<svg width="571" height="571" viewBox="0 0 571 571" fill="none" xmlns="http://www.w3.org/2000/svg">
<rect width="571" height="571" rx="10" fill="#F9F9F9"/>
<path d="M133.786 417V107.208H202.228V259.177C203.579 254.975 207.031 250.397 212.585 245.444C218.288 240.341 225.718 235.988 234.874 232.386C244.179 228.633 254.686 226.757 266.393 226.757C284.404 226.757 300.014 231.185 313.222 240.041C326.43 248.896 336.636 260.753 343.841 275.613C351.045 290.322 354.648 306.682 354.648 324.693C354.648 342.704 351.045 359.139 343.841 373.998C336.636 388.707 326.43 400.49 313.222 409.345C300.014 418.051 284.404 422.403 266.393 422.403C256.487 422.403 247.106 420.602 238.251 417C229.545 413.548 221.966 409.12 215.512 403.717C209.208 398.163 204.555 392.61 201.553 387.056V417H133.786ZM287.556 324.693C287.556 316.288 285.68 308.783 281.928 302.179C278.325 295.425 273.297 290.172 266.843 286.419C260.539 282.517 253.41 280.566 245.455 280.566C237.2 280.566 229.77 282.517 223.166 286.419C216.712 290.172 211.609 295.425 207.857 302.179C204.105 308.783 202.228 316.288 202.228 324.693C202.228 333.098 204.105 340.678 207.857 347.432C211.609 354.036 216.712 359.214 223.166 362.967C229.77 366.719 237.2 368.595 245.455 368.595C253.41 368.595 260.539 366.719 266.843 362.967C273.297 359.214 278.325 354.036 281.928 347.432C285.68 340.678 287.556 333.098 287.556 324.693ZM409.849 422.403C398.742 422.403 389.136 418.426 381.031 410.471C373.076 402.366 369.099 392.76 369.099 381.653C369.099 370.246 373.076 360.565 381.031 352.61C389.136 344.505 398.742 340.453 409.849 340.453C421.256 340.453 430.937 344.505 438.892 352.61C446.847 360.565 450.824 370.246 450.824 381.653C450.824 392.76 446.847 402.366 438.892 410.471C430.937 418.426 421.256 422.403 409.849 422.403Z" fill="#111111"/>
<path d="M143.014 473L151.731 449.349H154.738L163.421 473H160.414L158.252 466.918H148.183L145.987 473H143.014ZM149.028 464.621H157.407L153.218 452.93L149.028 464.621ZM179.471 473.405C177.264 473.405 175.327 472.899 173.66 471.885C171.993 470.849 170.698 469.419 169.774 467.594C168.851 465.747 168.389 463.618 168.389 461.208C168.389 458.798 168.851 456.669 169.774 454.822C170.72 452.975 172.049 451.534 173.761 450.497C175.496 449.461 177.534 448.943 179.877 448.943C182.535 448.943 184.742 449.585 186.499 450.869C188.279 452.153 189.428 453.921 189.946 456.174H186.668C186.353 454.755 185.598 453.628 184.404 452.795C183.233 451.962 181.724 451.545 179.877 451.545C178.142 451.545 176.633 451.939 175.349 452.727C174.065 453.493 173.063 454.597 172.342 456.039C171.644 457.48 171.295 459.203 171.295 461.208C171.295 463.213 171.644 464.936 172.342 466.378C173.04 467.819 174.009 468.934 175.248 469.723C176.487 470.488 177.928 470.871 179.573 470.871C182.096 470.871 183.999 470.139 185.283 468.675C186.567 467.189 187.299 465.161 187.479 462.593H180.654V460.363H190.385V473H187.783L187.547 469.114C186.691 470.488 185.643 471.547 184.404 472.29C183.166 473.034 181.521 473.405 179.471 473.405ZM198.59 473V449.349H213.22V451.68H201.428V459.924H212.206V462.222H201.428V470.669H213.22V473H198.59ZM221.378 473V449.349H224.216L236.819 468.304V449.349H239.657V473H236.819L224.216 454.045V473H221.378ZM258.762 473.405C256.442 473.405 254.438 472.899 252.748 471.885C251.081 470.849 249.786 469.419 248.863 467.594C247.939 465.747 247.477 463.607 247.477 461.174C247.477 458.764 247.939 456.647 248.863 454.822C249.786 452.975 251.081 451.534 252.748 450.497C254.438 449.461 256.442 448.943 258.762 448.943C261.466 448.943 263.662 449.596 265.351 450.903C267.063 452.187 268.155 453.989 268.629 456.309H265.486C265.126 454.845 264.383 453.673 263.256 452.795C262.153 451.894 260.655 451.443 258.762 451.443C257.073 451.443 255.598 451.838 254.336 452.626C253.075 453.392 252.095 454.507 251.397 455.971C250.721 457.413 250.383 459.147 250.383 461.174C250.383 463.202 250.721 464.947 251.397 466.411C252.095 467.853 253.075 468.968 254.336 469.756C255.598 470.522 257.073 470.905 258.762 470.905C260.655 470.905 262.153 470.477 263.256 469.621C264.383 468.743 265.126 467.583 265.486 466.141H268.629C268.155 468.416 267.063 470.196 265.351 471.48C263.662 472.763 261.466 473.405 258.762 473.405ZM281.247 473V464.012L273.544 449.349H276.754L282.667 461.309L288.579 449.349H291.755L284.086 464.012V473H281.247Z" fill="#111111"/>
</svg>
