<svg width="454" height="148" viewBox="0 0 454 148" fill="none" xmlns="http://www.w3.org/2000/svg">
<path d="M5.24037 93V1.72472H25.4058V46.5C25.8038 45.2618 26.821 43.913 28.4572 42.4537C30.1376 40.9501 32.3267 39.6676 35.0242 38.6063C37.766 37.5007 40.8616 36.948 44.311 36.948C49.6177 36.948 54.2168 38.2525 58.1084 40.8616C62 43.4708 65.0071 46.9644 67.1298 51.3424C69.2525 55.6762 70.3138 60.4964 70.3138 65.8031C70.3138 71.1099 69.2525 75.9522 67.1298 80.3302C65.0071 84.6641 62 88.1355 58.1084 90.7447C54.2168 93.3096 49.6177 94.592 44.311 94.592C41.3923 94.592 38.6284 94.0613 36.0192 93C33.4543 91.9829 31.2211 90.6783 29.3195 89.0863C27.4622 87.4501 26.0913 85.8138 25.2068 84.1776V93H5.24037ZM50.5463 65.8031C50.5463 63.3267 49.9936 61.1156 48.888 59.1698C47.8267 57.1798 46.3452 55.632 44.4436 54.5264C42.5863 53.3766 40.4857 52.8017 38.1419 52.8017C35.7097 52.8017 33.5207 53.3766 31.5749 54.5264C29.6733 55.632 28.1697 57.1798 27.0642 59.1698C25.9586 61.1156 25.4058 63.3267 25.4058 65.8031C25.4058 68.2796 25.9586 70.5128 27.0642 72.5029C28.1697 74.4487 29.6733 75.9743 31.5749 77.0799C33.5207 78.1855 35.7097 78.7382 38.1419 78.7382C40.4857 78.7382 42.5863 78.1855 44.4436 77.0799C46.3452 75.9743 47.8267 74.4487 48.888 72.5029C49.9936 70.5128 50.5463 68.2796 50.5463 65.8031ZM80.3426 93V38.54H100.508V93H80.3426ZM90.6907 27.3296C87.5067 27.3296 84.8091 26.224 82.598 24.0129C80.3869 21.7575 79.2813 19.0821 79.2813 15.9865C79.2813 12.8909 80.3869 10.2154 82.598 7.96009C84.8533 5.66052 87.5509 4.51073 90.6907 4.51073C92.7692 4.51073 94.6707 5.0414 96.3954 6.10275C98.1201 7.11986 99.5131 8.49076 100.574 10.2154C101.636 11.9401 102.166 13.8638 102.166 15.9865C102.166 19.0821 101.039 21.7575 98.7834 24.0129C96.5281 26.224 93.8305 27.3296 90.6907 27.3296ZM134.235 120.595H114.268V38.54H134.434V46.5C135.053 45.2618 136.225 43.913 137.949 42.4537C139.718 40.9501 141.952 39.6676 144.649 38.6063C147.391 37.5007 150.486 36.948 153.936 36.948C159.243 36.948 163.775 38.2525 167.534 40.8616C171.337 43.4708 174.256 46.9644 176.29 51.3424C178.325 55.6762 179.342 60.4964 179.342 65.8031C179.342 71.1099 178.258 75.9522 176.091 80.3302C173.924 84.6641 170.873 88.1355 166.937 90.7447C163.046 93.3096 158.447 94.592 153.14 94.592C149.337 94.592 146.086 93.9287 143.389 92.602C140.735 91.2311 138.635 89.7275 137.087 88.0913C135.583 86.4108 134.633 85.1063 134.235 84.1776V120.595ZM159.641 65.8031C159.641 63.3267 159.088 61.1156 157.982 59.1698C156.877 57.1798 155.373 55.632 153.471 54.5264C151.614 53.3766 149.514 52.8017 147.17 52.8017C144.738 52.8017 142.549 53.3766 140.603 54.5264C138.701 55.632 137.198 57.1798 136.092 59.1698C134.986 61.1156 134.434 63.3267 134.434 65.8031C134.434 68.2796 134.986 70.5128 136.092 72.5029C137.198 74.4487 138.701 75.9743 140.603 77.0799C142.549 78.1855 144.738 78.7382 147.17 78.7382C149.514 78.7382 151.614 78.1855 153.471 77.0799C155.373 75.9743 156.877 74.4487 157.982 72.5029C159.088 70.5128 159.641 68.2796 159.641 65.8031ZM217.272 94.592C211.302 94.592 205.995 93.3759 201.352 90.9437C196.753 88.4672 193.127 85.0842 190.473 80.7946C187.864 76.4608 186.56 71.5079 186.56 65.9358C186.56 60.3638 187.864 55.4109 190.473 51.0771C193.127 46.699 196.753 43.2497 201.352 40.729C205.995 38.2083 211.302 36.948 217.272 36.948C223.242 36.948 228.505 38.2083 233.06 40.729C237.615 43.2497 241.174 46.699 243.739 51.0771C246.304 55.4109 247.587 60.3638 247.587 65.9358C247.587 71.5079 246.304 76.4608 243.739 80.7946C241.174 85.0842 237.615 88.4672 233.06 90.9437C228.505 93.3759 223.242 94.592 217.272 94.592ZM217.272 78.0086C219.572 78.0086 221.562 77.5 223.242 76.4829C224.923 75.4658 226.227 74.0285 227.156 72.1712C228.085 70.3138 228.549 68.2133 228.549 65.8695C228.549 63.4815 228.085 61.3588 227.156 59.5014C226.227 57.6441 224.923 56.1847 223.242 55.1234C221.562 54.0621 219.572 53.5314 217.272 53.5314C214.973 53.5314 212.96 54.0621 211.236 55.1234C209.555 56.1847 208.229 57.6441 207.256 59.5014C206.327 61.3588 205.863 63.4815 205.863 65.8695C205.863 68.2133 206.327 70.3138 207.256 72.1712C208.229 74.0285 209.555 75.4658 211.236 76.4829C212.96 77.5 214.973 78.0086 217.272 78.0086ZM278.246 93H258.015V1.72472H278.246V93ZM333.502 93V84.1776C333.104 85.0621 332.087 86.3445 330.451 88.025C328.859 89.7054 326.736 91.2311 324.083 92.602C321.43 93.9287 318.334 94.592 314.796 94.592C309.49 94.592 304.846 93.3096 300.866 90.7447C296.886 88.1355 293.791 84.6641 291.579 80.3302C289.368 75.9522 288.263 71.1099 288.263 65.8031C288.263 60.4964 289.368 55.6762 291.579 51.3424C293.791 46.9644 296.886 43.4708 300.866 40.8616C304.846 38.2525 309.49 36.948 314.796 36.948C318.201 36.948 321.186 37.5007 323.751 38.6063C326.316 39.6676 328.395 40.9501 329.987 42.4537C331.579 43.913 332.684 45.2618 333.303 46.5V38.54H353.336V93H333.502ZM308.03 65.8031C308.03 68.2796 308.605 70.5128 309.755 72.5029C310.905 74.4487 312.43 75.9743 314.332 77.0799C316.278 78.1855 318.423 78.7382 320.766 78.7382C323.199 78.7382 325.343 78.1855 327.201 77.0799C329.058 75.9743 330.517 74.4487 331.579 72.5029C332.684 70.5128 333.237 68.2796 333.237 65.8031C333.237 63.3267 332.684 61.1156 331.579 59.1698C330.517 57.1798 329.058 55.632 327.201 54.5264C325.343 53.3766 323.199 52.8017 320.766 52.8017C318.423 52.8017 316.278 53.3766 314.332 54.5264C312.43 55.632 310.905 57.1798 309.755 59.1698C308.605 61.1156 308.03 63.3267 308.03 65.8031ZM384.573 93H364.408V38.54H384.573V46.9644H384.242C384.595 45.9472 385.458 44.6648 386.829 43.117C388.199 41.525 390.123 40.1099 392.6 38.8716C395.076 37.5892 398.105 36.948 401.687 36.948C404.208 36.948 406.53 37.346 408.652 38.142C410.775 38.8937 412.323 39.6234 413.296 40.331L405.468 56.7154C404.849 55.9636 403.744 55.1897 402.152 54.3937C400.604 53.5535 398.658 53.1334 396.314 53.1334C393.617 53.1334 391.383 53.8188 389.615 55.1897C387.89 56.5606 386.607 58.219 385.767 60.1648C384.971 62.1106 384.573 63.9458 384.573 65.6705V93ZM432.265 94.592C428.993 94.592 426.162 93.4201 423.774 91.0763C421.431 88.6883 420.259 85.8581 420.259 82.5856C420.259 79.2247 421.431 76.3723 423.774 74.0285C426.162 71.6405 428.993 70.4465 432.265 70.4465C435.626 70.4465 438.478 71.6405 440.822 74.0285C443.166 76.3723 444.338 79.2247 444.338 82.5856C444.338 85.8581 443.166 88.6883 440.822 91.0763C438.478 93.4201 435.626 94.592 432.265 94.592Z" fill="#F9F9F9"/>
<path d="M201.014 138L209.731 114.349H212.738L221.421 138H218.414L216.252 131.918H206.183L203.987 138H201.014ZM207.028 129.621H215.407L211.218 117.93L207.028 129.621ZM237.471 138.405C235.264 138.405 233.327 137.899 231.66 136.885C229.993 135.849 228.698 134.419 227.774 132.594C226.851 130.747 226.389 128.618 226.389 126.208C226.389 123.798 226.851 121.669 227.774 119.822C228.72 117.975 230.049 116.534 231.761 115.497C233.496 114.461 235.534 113.943 237.877 113.943C240.535 113.943 242.742 114.585 244.499 115.869C246.279 117.153 247.428 118.921 247.946 121.174H244.668C244.353 119.755 243.598 118.628 242.404 117.795C241.233 116.962 239.724 116.545 237.877 116.545C236.142 116.545 234.633 116.939 233.349 117.727C232.065 118.493 231.063 119.597 230.342 121.039C229.644 122.48 229.295 124.203 229.295 126.208C229.295 128.213 229.644 129.936 230.342 131.378C231.04 132.819 232.009 133.934 233.248 134.723C234.487 135.488 235.928 135.871 237.573 135.871C240.096 135.871 241.999 135.139 243.283 133.675C244.567 132.189 245.299 130.161 245.479 127.593H238.654V125.363H248.385V138H245.783L245.547 134.114C244.691 135.488 243.643 136.547 242.404 137.29C241.166 138.034 239.521 138.405 237.471 138.405ZM256.59 138V114.349H271.22V116.68H259.428V124.924H270.206V127.222H259.428V135.669H271.22V138H256.59ZM279.378 138V114.349H282.216L294.819 133.304V114.349H297.657V138H294.819L282.216 119.045V138H279.378ZM316.762 138.405C314.442 138.405 312.438 137.899 310.748 136.885C309.081 135.849 307.786 134.419 306.863 132.594C305.939 130.747 305.477 128.607 305.477 126.174C305.477 123.764 305.939 121.647 306.863 119.822C307.786 117.975 309.081 116.534 310.748 115.497C312.438 114.461 314.442 113.943 316.762 113.943C319.466 113.943 321.662 114.596 323.351 115.903C325.063 117.187 326.155 118.989 326.629 121.309H323.486C323.126 119.845 322.383 118.673 321.256 117.795C320.153 116.894 318.655 116.443 316.762 116.443C315.073 116.443 313.598 116.838 312.336 117.626C311.075 118.392 310.095 119.507 309.397 120.971C308.721 122.413 308.383 124.147 308.383 126.174C308.383 128.202 308.721 129.947 309.397 131.411C310.095 132.853 311.075 133.968 312.336 134.756C313.598 135.522 315.073 135.905 316.762 135.905C318.655 135.905 320.153 135.477 321.256 134.621C322.383 133.743 323.126 132.583 323.486 131.141H326.629C326.155 133.416 325.063 135.196 323.351 136.48C321.662 137.763 319.466 138.405 316.762 138.405ZM339.247 138V129.012L331.544 114.349H334.754L340.667 126.309L346.579 114.349H349.755L342.086 129.012V138H339.247Z" fill="#F9F9F9"/>
</svg>
